<svg version="1.1" baseProfile="full" xmlns="http://www.w3.org/2000/svg" preserveAspectRatio="xMidYMid slice" width="1680" height="1000" viewBox="160 730 700 600">
    <rect x="160" y="730" width="1680" height="1000" fill="black" />
    <polygon points="505.157074710437,836.5618239839271 313.7523329470864,881.9324360561841 490.9659981584115,967.1630316535185 689.8355649111834,886.1531258136467 " fill="#0652DD" stroke="#0652DD" stroke-width="1" stroke-opacity="0.1" id="xy-plane" fill-opacity="0.1"></polygon>
    <path d=" M 504.4053974277597,1016.012825592205 L 346.73342346217544,1091.9159729855596  M 346.73342346217544,1091.9159729855596 L 493.0448722778162,1220.4221293463143  M 493.0448722778162,1220.4221293463143 L 655.6880198268946,1098.6949556311793  M 655.6880198268946,1098.6949556311793 L 504.4053974277597,1016.012825592205  M 313.7523329470864,881.9324360561841 L 490.9659981584115,967.1630316535185  M 490.9659981584115,967.1630316535185 L 689.8355649111834,886.1531258136467  M 689.8355649111834,886.1531258136467 L 505.157074710437,836.5618239839271  M 505.157074710437,836.5618239839271 L 313.7523329470864,881.9324360561841  M 346.73342346217544,1091.9159729855596 L 313.7523329470864,881.9324360561841  M 504.4053974277597,1016.012825592205 L 505.157074710437,836.5618239839271  M 493.0448722778162,1220.4221293463143 L 490.9659981584115,967.1630316535185  M 655.6880198268946,1098.6949556311793 L 689.8355649111834,886.1531258136467 " stroke="#607D8B" stroke-width="1" opacity="1" id="scene-edges-cube-box"></path>
    <path d=" M 420.50827178717554,856.6269904183127 L 605.667167895795,920.4392864778678  M 585.9629672642716,858.2604495407052 L 387.93102128189537,917.6085436513041  M 585.9629672642716,858.2604495407052 L 572.120333459082,1053.0218029468613  M 605.667167895795,920.4392864778678 L 584.3308181836413,1152.1008974808542  M 689.8355649111834,886.1531258136467 L 505.157074710437,836.5618239839271  M 505.157074710437,836.5618239839271 L 313.7523329470864,881.9324360561841  M 313.7523329470864,881.9324360561841 L 490.9659981584115,967.1630316535185  M 490.9659981584115,967.1630316535185 L 689.8355649111834,886.1531258136467 " stroke="#795548" stroke-width="1" opacity="1" id="cross-section-lines"></path>
    <path d="M 496.6565110212137,865.7015453404218 Q 434.2443622826621,977.5235098854425 436.30377493131846,971.748273536483 Q 630.0815728322549,1046.3965589973677 533.3091539588738,1080.258692755601 Q 551.7865196542581,1019.2303707797575 426.4382598277355,902.8959633688976 Q 499.07152430553975,1041.4362565505694 484.850221038322,1020.1117363006204 Q 500.04334478288695,1006.1880351887622 507.9312915194981,1029.5383324157463 Q 446.10674880697854,923.0950657293921 406.33498095934897,1091.3360934711043 Q 436.23783391494976,1103.5177100648043 629.3031036868988,991.5777910245727 Q 458.4787907162616,919.2957162780816 509.80172612935917,1074.4129760731194 Q 590.5742691120624,939.5754653524015" stroke="deepPink" fill="transparent" stroke-width="4" stroke-linejoin="round"></path>
</svg>